<?xml version="1.0" encoding="utf-8"?><!DOCTYPE svg PUBLIC "-//W3C//DTD SVG 1.1//EN" "http://www.w3.org/Graphics/SVG/1.1/DTD/svg11.dtd"><svg version="1.1" id="Layer_1" xmlns="http://www.w3.org/2000/svg" xmlns:xlink="http://www.w3.org/1999/xlink" x="0px" y="0px"  viewBox="0 0 243.78 73.701" enable-background="new 0 0 243.78 73.701" xml:space="preserve"><g> <g>  <path fill="#FFFFFF" d="M130.471,65.857c0-1.325,1.148-2.475,2.512-2.475c1.365,0,2.513,1.149,2.513,2.475   c0,1.366-1.147,2.548-2.513,2.548C131.62,68.405,130.471,67.223,130.471,65.857z"/>  <path fill="#FFFFFF" d="M137.002,59.328c0-5.239,3.696-9.079,8.936-9.079c3.409,0,5.419,1.436,6.638,3.085l-2.475,2.262   c-0.969-1.363-2.297-2.012-3.983-2.012c-3.122,0-5.239,2.37-5.239,5.744c0,3.371,2.117,5.775,5.239,5.775   c1.686,0,3.015-0.717,3.983-2.081l2.475,2.332c-1.219,1.617-3.229,3.088-6.638,3.088   C140.698,68.443,137.002,64.568,137.002,59.328z"/>  <path fill="#FFFFFF" d="M153.077,59.328c0-4.987,3.375-9.079,8.9-9.079c5.526,0,8.9,4.092,8.9,9.079   c0,4.949-3.374,9.114-8.9,9.114C156.452,68.443,153.077,64.278,153.077,59.328z M166.965,59.328c0-3.05-1.758-5.744-4.988-5.744   c-3.193,0-4.988,2.694-4.988,5.744c0,3.085,1.795,5.775,4.988,5.775C165.208,65.104,166.965,62.413,166.965,59.328z"/>  <path fill="#FFFFFF" d="M194.202,68.011V56.708c0-1.865-0.826-3.124-2.869-3.124c-1.689,0-3.267,1.15-4.021,2.297v12.13h-3.768   V56.708c0-1.865-0.789-3.124-2.836-3.124c-1.686,0-3.229,1.186-4.019,2.297v12.13h-3.768V50.677h3.768v2.335   c0.755-1.041,3.016-2.763,5.669-2.763c2.585,0,4.164,1.293,4.737,3.158c0.971-1.545,3.267-3.158,5.886-3.158   c3.158,0,4.988,1.722,4.988,5.238v12.523H194.202z"/>  <path fill="#FFFFFF" d="M200.516,65.857c0-1.325,1.148-2.475,2.514-2.475c1.362,0,2.511,1.149,2.511,2.475   c0,1.366-1.148,2.548-2.511,2.548C201.665,68.405,200.516,67.223,200.516,65.857z"/>  <path fill="#FFFFFF" d="M220.29,68.011v-2.367c-1.328,1.722-3.303,2.799-5.562,2.799c-4.414,0-7.68-3.373-7.68-9.114   c0-5.598,3.23-9.079,7.68-9.079c2.189,0,4.162,0.968,5.562,2.833v-2.405h3.768v17.334H220.29z M220.29,62.772v-6.855   c-0.826-1.289-2.692-2.332-4.451-2.332c-3.014,0-4.916,2.405-4.916,5.744c0,3.371,1.902,5.775,4.916,5.775   C217.597,65.104,219.463,64.065,220.29,62.772z"/>  <path fill="#FFFFFF" d="M238.841,68.011v-2.297c-1.222,1.362-3.374,2.729-6.102,2.729c-3.731,0-5.598-1.973-5.598-5.489V50.677   h3.768v10.876c0,2.69,1.362,3.551,3.518,3.551c1.902,0,3.552-1.112,4.414-2.259V50.677h3.767v17.334H238.841z"/> </g> <path fill="#FFFFFF" d="M115.479,42.419l-15.441-21.182v21.182h-9.439V5.817h9.714l14.816,20.14V5.817h9.439v36.603H115.479z"/> <path fill="#FFFFFF" d="M130.109,42.419V5.817h26.835v8.232h-17.395v5.707h17.012v8.232h-17.012v6.201h17.395v8.23H130.109z"/> <path fill="#FFFFFF" d="M191.461,42.419l-5.542-22.937l-5.543,22.937h-9.987L159.907,5.817h10.591l5.543,24.42l6.256-24.42h7.243  l6.256,24.42l5.488-24.42h10.646l-10.482,36.603H191.461z"/> <path fill="#FFFFFF" d="M227.405,43.077c-3.732,0-6.906-0.53-9.52-1.591c-2.616-1.062-4.856-2.47-6.723-4.226l4.993-7.079  c1.317,1.317,2.964,2.452,4.939,3.402c1.975,0.952,4.226,1.427,6.749,1.427c1.646,0,2.928-0.283,3.842-0.85  c0.914-0.567,1.372-1.29,1.372-2.169c0-0.84-0.513-1.462-1.536-1.865c-1.025-0.401-2.306-0.776-3.842-1.125  c-1.537-0.347-3.202-0.732-4.994-1.152c-1.793-0.421-3.457-1.051-4.993-1.893c-1.537-0.841-2.817-1.976-3.841-3.402  c-1.026-1.427-1.538-3.31-1.538-5.652c0-1.536,0.32-3.009,0.954-4.417c0.638-1.408,1.574-2.643,2.812-3.704  c1.236-1.062,2.757-1.912,4.559-2.552c1.804-0.64,3.876-0.961,6.218-0.961c5.963,0,10.921,1.701,14.871,5.104l-5.158,6.751  c-1.536-1.281-3.247-2.232-5.13-2.855c-1.886-0.621-3.742-0.933-5.571-0.933c-1.391,0-2.396,0.247-3.019,0.741  c-0.622,0.493-0.933,1.125-0.933,1.893c0,0.769,0.514,1.354,1.541,1.756c1.027,0.403,2.312,0.778,3.853,1.125  c1.54,0.349,3.199,0.741,4.979,1.18c1.778,0.439,3.438,1.08,4.979,1.921c1.539,0.842,2.824,1.968,3.852,3.375  c1.027,1.408,1.54,3.247,1.54,5.515c0,1.831-0.338,3.503-1.015,5.022c-0.677,1.518-1.656,2.808-2.936,3.869  c-1.282,1.062-2.873,1.885-4.774,2.469C232.032,42.785,229.855,43.077,227.405,43.077z"/> <path fill="#FFFFFF" d="M74.125,20.057H53.776v-6.093h19.843h0.506V20.057z M78.363,5.258H49.199c-2.03,0-4.13,1.609-4.13,4.304  v14.362c0,3.088,2.109,4.471,4.198,4.471l4.145,0.039h20.714v5.882H49.392c-0.03,0-0.056,0.005-0.085,0.006  c-2.38,0.025-4.303,1.96-4.303,4.347c0,2.233,1.698,4.348,3.848,4.352c0.002,0.01,0.001-0.012,0.002,0h29.509  c4.251,0,4.468-3.722,4.468-4.468V9.808C82.831,6.682,80.514,5.258,78.363,5.258z"/> <path fill="#FFFFFF" d="M1.12,24.156c0-2.84,2.301-5.141,5.142-5.143l0,0c2.841,0.002,5.142,2.303,5.143,5.143l0,0  c-0.001,2.841-2.302,5.143-5.143,5.143l0,0C3.421,29.298,1.12,26.996,1.12,24.156L1.12,24.156z"/> <path fill="#FFFFFF" d="M1.12,37.902c0-2.84,2.301-5.142,5.142-5.143l0,0c2.841,0.001,5.142,2.303,5.143,5.143l0,0  c-0.001,2.84-2.302,5.142-5.143,5.143l0,0C3.421,43.043,1.12,40.741,1.12,37.902L1.12,37.902z"/> <path fill="#FFFFFF" d="M15.796,10.41c0.001-2.841,2.302-5.142,5.142-5.143l0,0c2.84,0.001,5.142,2.302,5.142,5.143l0,0  c0,2.84-2.302,5.142-5.142,5.143l0,0C18.097,15.552,15.796,13.25,15.796,10.41L15.796,10.41z"/> <path fill="#FFFFFF" d="M15.796,24.156c0-2.84,2.302-5.141,5.142-5.143l0,0c2.84,0.002,5.141,2.303,5.143,5.143l0,0  c-0.002,2.841-2.303,5.143-5.143,5.143l0,0C18.097,29.298,15.796,26.996,15.796,24.156L15.796,24.156z"/> <path fill="#FFFFFF" d="M15.796,37.902c0.001-2.84,2.302-5.142,5.142-5.143l0,0c2.84,0.001,5.142,2.303,5.143,5.143l0,0  c-0.001,2.84-2.303,5.142-5.143,5.143l0,0C18.097,43.043,15.796,40.741,15.796,37.902L15.796,37.902z"/> <path fill="#FFFFFF" d="M30.471,10.41c0.002-2.84,2.303-5.142,5.143-5.143l0,0c2.84,0.001,5.143,2.302,5.143,5.143l0,0  c0,2.84-2.303,5.142-5.143,5.143l0,0C32.774,15.552,30.473,13.25,30.471,10.41L30.471,10.41z"/> <path fill="#FFFFFF" d="M30.471,24.156c0.001-2.84,2.303-5.141,5.143-5.143l0,0c2.84,0.002,5.143,2.303,5.143,5.143l0,0  c0,2.841-2.303,5.143-5.143,5.143l0,0C32.774,29.298,30.472,26.996,30.471,24.156L30.471,24.156z"/> <path fill="#FFFFFF" d="M30.471,37.902c0.002-2.84,2.303-5.142,5.143-5.143l0,0c2.84,0.001,5.143,2.303,5.143,5.143l0,0  c0,2.84-2.303,5.142-5.143,5.143l0,0C32.774,43.043,30.473,40.741,30.471,37.902L30.471,37.902z"/> <circle fill="#FFFFFF" cx="6.262" cy="10.411" r="5.142"/></g></svg>